<mxfile host="app.diagrams.net" agent="Mozilla/5.0 (Windows NT 10.0; Win64; x64) AppleWebKit/537.36 (KHTML, like Gecko) Chrome/138.0.0.0 Safari/537.36" version="28.0.5">
  <diagram name="Page-1" id="bKLIkSmEcA1g8waLZ9ws">
    <mxGraphModel dx="1188" dy="624" grid="0" gridSize="10" guides="1" tooltips="1" connect="1" arrows="1" fold="1" page="1" pageScale="1" pageWidth="850" pageHeight="1100" math="0" shadow="0">
      <root>
        <mxCell id="0" />
        <mxCell id="1" parent="0" />
        <mxCell id="4f5iD5GosNyRMmwosMSg-12" style="rounded=0;orthogonalLoop=1;jettySize=auto;html=1;exitX=1;exitY=0.5;exitDx=0;exitDy=0;entryX=0;entryY=0.5;entryDx=0;entryDy=0;" edge="1" parent="1" source="4f5iD5GosNyRMmwosMSg-14" target="4f5iD5GosNyRMmwosMSg-18">
          <mxGeometry relative="1" as="geometry" />
        </mxCell>
        <mxCell id="4f5iD5GosNyRMmwosMSg-13" style="edgeStyle=none;rounded=0;orthogonalLoop=1;jettySize=auto;html=1;exitX=1;exitY=0.5;exitDx=0;exitDy=0;entryX=0;entryY=0.5;entryDx=0;entryDy=0;" edge="1" parent="1" source="4f5iD5GosNyRMmwosMSg-14" target="4f5iD5GosNyRMmwosMSg-20">
          <mxGeometry relative="1" as="geometry" />
        </mxCell>
        <mxCell id="4f5iD5GosNyRMmwosMSg-14" value="unstructured python library" style="rounded=0;whiteSpace=wrap;html=1;" vertex="1" parent="1">
          <mxGeometry x="158" y="291" width="120" height="60" as="geometry" />
        </mxCell>
        <mxCell id="4f5iD5GosNyRMmwosMSg-15" style="edgeStyle=orthogonalEdgeStyle;rounded=0;orthogonalLoop=1;jettySize=auto;html=1;exitX=1;exitY=0.5;exitDx=0;exitDy=0;entryX=0;entryY=0.5;entryDx=0;entryDy=0;" edge="1" parent="1" source="4f5iD5GosNyRMmwosMSg-16" target="4f5iD5GosNyRMmwosMSg-14">
          <mxGeometry relative="1" as="geometry" />
        </mxCell>
        <mxCell id="4f5iD5GosNyRMmwosMSg-16" value="" style="shape=image;verticalLabelPosition=bottom;labelBackgroundColor=default;verticalAlign=top;aspect=fixed;imageAspect=0;image=https://res-academy.cache.wpscdn.com/images/seo_posts/20230705/e2586bdc1cda16d92fd0632491a71092.png;" vertex="1" parent="1">
          <mxGeometry x="10" y="264.5" width="113" height="113" as="geometry" />
        </mxCell>
        <mxCell id="4f5iD5GosNyRMmwosMSg-17" style="edgeStyle=none;rounded=0;orthogonalLoop=1;jettySize=auto;html=1;exitX=1;exitY=0.5;exitDx=0;exitDy=0;entryX=0;entryY=0.5;entryDx=0;entryDy=0;" edge="1" parent="1" source="4f5iD5GosNyRMmwosMSg-18" target="4f5iD5GosNyRMmwosMSg-21">
          <mxGeometry relative="1" as="geometry" />
        </mxCell>
        <mxCell id="4f5iD5GosNyRMmwosMSg-18" value="TEXT" style="rounded=0;whiteSpace=wrap;html=1;" vertex="1" parent="1">
          <mxGeometry x="329" y="234.77" width="66" height="60" as="geometry" />
        </mxCell>
        <mxCell id="4f5iD5GosNyRMmwosMSg-19" style="edgeStyle=none;rounded=0;orthogonalLoop=1;jettySize=auto;html=1;exitX=1;exitY=0.5;exitDx=0;exitDy=0;entryX=0;entryY=0.5;entryDx=0;entryDy=0;" edge="1" parent="1" source="4f5iD5GosNyRMmwosMSg-20" target="4f5iD5GosNyRMmwosMSg-22">
          <mxGeometry relative="1" as="geometry" />
        </mxCell>
        <mxCell id="4f5iD5GosNyRMmwosMSg-20" value="IMAGES" style="rounded=0;whiteSpace=wrap;html=1;" vertex="1" parent="1">
          <mxGeometry x="327" y="355.77" width="76" height="60" as="geometry" />
        </mxCell>
        <mxCell id="4f5iD5GosNyRMmwosMSg-33" style="edgeStyle=none;shape=connector;rounded=0;orthogonalLoop=1;jettySize=auto;html=1;exitX=1;exitY=0.5;exitDx=0;exitDy=0;entryX=0;entryY=0.5;entryDx=0;entryDy=0;strokeColor=default;align=center;verticalAlign=middle;fontFamily=Helvetica;fontSize=11;fontColor=default;labelBackgroundColor=default;endArrow=classic;" edge="1" parent="1" source="4f5iD5GosNyRMmwosMSg-21" target="4f5iD5GosNyRMmwosMSg-27">
          <mxGeometry relative="1" as="geometry" />
        </mxCell>
        <mxCell id="4f5iD5GosNyRMmwosMSg-21" value="" style="shape=image;verticalLabelPosition=bottom;labelBackgroundColor=default;verticalAlign=top;aspect=fixed;imageAspect=0;image=data:image/png,iVBORw0KGgoAAAANSUhEUgAAAMwAAADACAMAAAB/Pny7AAABLFBMVEX/////0h7/nQAyND3/mwD/rQP/mQD/Mj3/lwD/1B7/lQD/nAkuMT3/0yj//vv/1CQoLT7/zRr/oiH/oBH/2Kr/qRv1zh//+ev/sCb/0zb/1zEQHz//+/T/9uz/vi7/pBv/8t//zDL/rDr/2xv/vhH/xhb/tQn/xzL/wzf/u1b/uC//2aSUfjBCQDthVzgcJj7/v0H/58T/27X/7dP/tEr/zUT/xn3/z5r/vmr/z5D/qED/sVjPrCd4aTSJdjLZtSRsXzbFpCpQSjn/wIL/u3MhMj3/miv/2VX/20XqwyCvkyuhiC04OTsAEkAAC0BYUDhmRDqeQDqBRTmzQTnfRToLMz3vSjhgOjvBQTqURjhQPzvzOzt1RzlPNTy/TzfhZjP/WDf/hi7/azT/yFksrJrEAAAVbklEQVR4nO1di1fiSNYfoKxOEUIgIZqgJoQWglFbAUGQVtvHTIs6O7s9j52d/h47O/////DVMw8kiBi0v3O458x0a+dRv7q37qvurXz33YpWtKIVrWhFK1rRila0ohWtaEUrWtGKVvT/hIqc3nocL6StjVq32+1UGHXw32sbW289qEWo1u5U+oPd43pdE1SvH+8O+ieddu2tB/cc2mgPr0d1TQbTSHbqo+the/utBzkPFWt7N6N6VoJ05NlJor+FUrY+utmrfePLaLs7ONUAnIJiEhMEWr3f3XjrASdSsVbZlSF8CkgACEL5uNL9JjXCdqdvSPCxUEEMD2KpI38+EjyYN/qdbw7OduU4G4NClrqs63rWMf0WJts3jSz+hSzHEUFJP/624Gy1d0FEvAgQzTD8Vs+yMpmyqmYyGfo/y+q1fMNwYoDwnbvtbwZOsdsHEgiRyFnDbHq3KiKUiRL9jXrbaxIuhXiAlO13vw3VVjtx8iBEohv+jns7gSIzganq7viGHuIBeeek9tZAiIQNAAwERjdMu6Gos5BwPKri2qYhB8IJ4U37rZlTG9bF9AIoG7ZbVp5GwkhVyq4fwgGw/rbMKXZGeji1GMo8TImyp+zaBgwY6wzabwhmqAVSL2ktDOUZSAJpazlCewBQ33szUTuWA7ZIvvVcIAFZvhTIGui/DZQNPS+gAKP3LPmaYA/qmYESya+9BW+6df5+7NS3qotDoXAs2xECmzdePTootk8lgcV0n71WHlHVNYUqkeqvrAaK7WPIhVy3rZexhTNHsXW+cuDxq1qcYqfOXozZsqOkAIWi8QyuUODpa/Kmw9dLOiImSHVNgea4+2pYxHoBWd9KD0uGKGldoKm9EpbuKQywpLFcQkKWz3gDpNHroKmNxNpPGwtFA/jDB6+hobcG3L5AM6WlH0NT9fPCF3iFgG3IPSnJrKaPJYpG31s6lgpzPIiMLQMLpqrPpgvqy1ZpNYcJmbw0LFinmTKT4/py02pb3PDLZro6OUbINZkk54fL9ASKQ645DS9tPRYjz+DmprJEMG1mYbA/tjy+EMJ+Gls2p7WlYdm+oX46kP0lKOU4GmY8gXy9LP1crGhcyNwlY8lkXIPJwNJczhozl0Be7oKhhDw6cdh0LkejbZ1kmSDbyxYyQgrTaKBeWYpG4/4ldNzlMwazpuewqVuKx7l1wt2M1gw35lF2efalM69tMR2gnSxBB3R1+IR7iQe3jikzDx6EVHZt8hWWCZfFmmI/z0xMYmiJ1PHHu/39+4/jpzO0aP0CX4qvXU9GrrrU2IBs+qumxla/nMgYNL47u3rIFR5+Ortbn40GoYv7DweFQiF3dX6RiAYpjDXSbuqRDWcMSFLLaHz+UCrh8eExHuzPRIPQ5YcCuTRXKJU+fUxMH6otxhqQuq1h/oWUxBi0fn6IR8eoUNqfyZrLg1IhuPTDx8TrFOai5Qcpy1mFMUZ2E7Cod7kACxni5YyVffGhFF6aK52PEwXNYwpNSlnORjQfIyU5ZWj8KTrAXOmnGay5K0QvLRwkA+erJj9MFQtPLEMvSZVdPsRHmLt4nzTd47PYpbnSfuKqQT0qEHAtVTB7We5hTn8tWt/PTYzwPhnM1cSlnxLlLMO0czZfSxHL1g2cJmVEqyIG5iwmZbnc4XkimI8HE2CuLgQYxP8LSPGZeKe5a9OmUgYcb2Jg5XKj/Gwwl8lgyo1GuRwDYzPxPk0RTIf649CMJzEazTVMO2WqmOMDxAshEczFJJgPHEx5hzxvrRG9uExVANTSMzVbfaoiJwJM9mqKBptBoQCoKcQG8TJ5zWDNXMCMLPA7SufMxJab/IFRNIoPU86h1XYBk7IIGNRYE7SDQttR+rB//ukqt3mV6AMgZf+w9PDhfP+McajwcBefHIwmvFdl2QCY3qJhkQzWZVHF3Aze3QyNZumnj+vji8v7s7skxhA5O9+/uxivX+xTbpbOmDIrr0UfGJBLvQA4Sstu8thfNsuR2S6HYNbK1HocknX/kUQpyvp4hnOGlPH6Orls/KlA4bNfNyJgIkrAZYsmta3BrSFhNdBj4XIMDFHRF2eHpR/3qQ/8RNjF/5kstNLhFceCEsBkmmS9Aq2TEpjtAaBgWklg2GjG+4XZ3vJjUJeHH8YB7vB5OxEwikfCZyCfpORsbo+YRmnERhqu1yaKzfhz0ETuQOHs7ESuUXt00cg3KS0alscEZjyADFkTM3OLU6ABYlKmMg0AdmvpgOHrfzLvL9A0MilRYwoWbDaZOktry/ZEnwoGW+xms7mTGhaMhj6wHBMAxDK14DQdMMUhzTDL9qMUEyqnJGEB4QdOLjuWRE8rT1u8ZhvlO8vN/CdRlWYCgJZOjmaLgdF3XiOROQWMx8AMU8kFbt8wMK+QLp9GKgOjpwOmNqBgnMbbgklnJ32DgUkKmZdNaIeCyfZTsZpczOYEM78TMOeFqMFSgelUbDAwcD4waH2cmcOrIYXn4xl55ig1DBo5pwOGaTNo9OZJ7q+XDg/OL9Zn4iG7BeP7q8OD5Fxm9GqXlgWkBKZ4PT9n3l/+WChtFs4ux4nyRgKZi/PDzVLhx/t5nGzhz6QJJjFnFgdzt0ki4c1NDGcqe4h4XZ7naF76cL6IoWGkzpn5FMD7+02easqd3V08WhREvu7ODniKfXM+zrA1k5ICKF7DuY0muuRgcoXSw6f9y4vMexREO+/R+PL+LNwB2Lybpxiaq+a0wAxZcek87gwa/y3IhxVKuatP95cfx5n3mBDNc1w9FMKk2eHlPOpZFXYmFaNZHLJNs+YcjiZa/zGS3isUCg8HP30629+/Pz/79OHgoVCI7ns8XM7juqbrzny3xwozHocA08BcTeRpCwWKoMD/jGcy58ASeM3pbDoXO3UWnM1T+Yf2N3Nz0mHyLlOULBbPaJ10Mhrt0+mR5lQwF/OCKeSe2sdllG5wxstlZYPEs2pGUSzyRxKY8YfS00CYlM1yAMh7FPIHYmYGpFXovD0CPNWEFM9eM80121USN2rvD+fkzAwpUxTXXjPwe7wyBpNqdma7z5KAXtU1HZ10wurOmh1tY4oYR/RxQgV8//3kXxiWg4iUxTNuqmIbjk5abnXHdGkSMCunEwGQqhmNZTQ9A4gSaiCbHrcSCFUty6pyA4jW90sxKH//xwFF8euXLw9ROGeCMUhVLNe1qgKP6plBUyp+DW1FSS+jyfeasqTzNSsIQMdmr7c83zRNH4se2xL8+FOI5uHLz798/flXgurLb7/9HsIpXF3ywauWjW83TN+zGDRbi/Z6s87c9HLNojhrossaUgen6pmOhCUCyo5PvTe8avjWWCH3999/e/fu3dcv3+e+/+cv+G+//f7PYMVwIVM8k0guhJJjkv0fxZYnur3pq9NrEKoNYlMVdLs5XlUJ+6uI5FE0fG+8kPsXAYDplz9+ffid//UL28cJ9jF3wvuBYyvMRPL3RCZulFpBoKgAZkP2TdGLCIyWrUckDxi000HogH/9xgC8+/rzH//4+i5Awyo4mEx6enSedLvFi4ABZpQZikKKO2di0WTZxobl8saQrOzoMdGDxi1dBpdk+r8ILATO1/Cv//V97sc7jqWnx2QKq0lebC77DUs5Cp+eYl9A9zjocjWqpPmg5Qi1JpjCa8R9Osj3l4elP355N51++e9NUfFQNURHIYj9CTSqXFTxz7CeUtq8uFXr9OtiiuQWFw8nJh6YOK9uGZqPDz8nYHn37n/EhifqyVx0dV2OPo+3faKWzME4/WGl9nJPc7tznM/nA8bIPK2hRtDgpVMVvAJN5o6+v/jfJCz/1oSBtHjxMlYk1cjiwz9zmyXAZCEeg3TceaHh7A6gFJ2z7BEfCVahQjSyZBea73FzHUACxD//PRXKn34Qe3oO4yspL1IDVUA2T/kzbDkbebcE+rWXYKmNpLhxoWuGvoiXT+FZY7UOFm+tEG0CqGz++e+vj6BEtqyrPh0rr5Ss8ucB/DwkltTEy+HgBWhExBxdHiKvgSw+lRKTPJUJmhzsFiJUtn/48z8Bnq//+fMHvxHZxHSZP8wrclCP7ZzAoJuFV5zG0LygCaU9+TSsbsLBeqzQWXLZz67Dq4WCIA7DaXj1HzgZtC4lExAOVBivy1EwQApmixedR+kF3U7FAe/HlLAKCOx8S7jL6hFFI3HBUXydSU1kH49UOER/CKEQMeQrRKgD+rK8LS6KrEq8/vk5MPn+oqzZZs0F0Oj1/jIBfzQJBcTUUW0klWNSgVkTD90Qp0ycFCaWQKSwGGegIaZCFSYTyPDor17P5B7non5NRWZy4KoIqZ99nZk04ARC7ZEXSCKcVtiCBmvlyYFPIZULkSzqPigYHAGKf+/x/hZZx/E6fj/bQs/Ki3qcQ8jkinICqT3fYbPjiIoghbSISkJbq67zuPopiXjzUtgmgY5gpM1I5X0N+DcWi5SqrDcALurYMDC66GRA1l+skxoG9U2kZweaQqwUf3bxc4QQ7/YJcz7EggLTFfNisIk0vEBPM39aXhTMnuCMEJvqra9B6uyXw/kNm4PwqqF3zNFhY/msXjHIYGMDCQKeqi71mKEm2BK2PcuL9tR12RqIiI1q9UgcGKChmyeB1c+ovIPnyby0KL8GwsSqFhYroQhZLz2A2lGYaOAeApBrC4LZYnWmePrCma72SFAeoCHvAHJT+DDckEJjdgs3YjZJhAwEC54GUZ3HsciRU0bIyQdMhI8XdTeLe6xoHuvmsAhIvT3SKBoWJCuENfgHBhe1IF82s9CI1hgAuZApPYKFKzaORffLIVuwHmd2Rlq8c7PDD/2Ajh8yHN3+pRHFw1wByn4MlxsXy2R2HNrJTTSo6jOtCPnqV3tEBLC0cqR49UAcBIZssXwRxMGFExssL8tWgdkL4dweOTTZRF/HrAvgaJCrib7UJDQYiwyiq1/1iJOG9Qh9QpVgiZ7+oio9IzytZ9GCoO1RGNNiTeNb1WA4HhUuOrF8nUCeilZ4RiIRDQraY4WrwDQb98dvCVKikQMRs3wnchQaXLA1qB/LLWHmeOFsEcHgFog5nEBYP0WcHKFP74Jgm0eRMkm+0Z+nGvCWODFQmBs6b4YcGwZYqGVDMIYcTwjpThwIlzXtDOdo1F4egLywfqqyxu9zpiloVXBOFmELXiQSvp8qaWoZQ+2BED/wBEAo8QOd4GgRV1OkZMxezzcop/Ejg5WDJR//yBqD1Z6hhxsewoua2tEplDLR7YJxWCPqbMkRhwhPmRAAVTnKs2l0jNbnv+psjhbKB+4xK4WnCaHq5yY59Y4cd+eJ/Yxq05F58IKq1YhXXBVopMcnhlginoxWfCOV3660NGA0ORa17Gl5orF1o/kZX4Bu6b1AW0Q7n1BmyCy+QMiyTV0m4VHT5Rnzquv77jTHpeoKL3HSr1Fs4XlP7ZBUPN92gziTShheqrbFs2xNqjezJwuD0UWwhBTXNqiXgUNG9kJUtaY7YVVu4x71p3OUcDLmEaRWBVss26B+kyES8vh3zAgs1OSwR18MzYjxcn0ySMqc2aRw32uCNaLNP0HRhYRcn9liO2Q9sti2k7MIGGYy41XzWA4k/JKsOdkW9GiK2YErcdYgjzEs7z+1Z071MQS+F3E8uH1arI62yDoASW4+XMaKQo/ww1btiam1eEASnQrVnvD7k7HgGZPqvWiLS2BrRwtgCfb/6VFZ4dtVLAEQTHY5PUbD0hEwukfNTb3eegKLi+N9qB9F9R12RbktXkiZ4QjgVGTH5SO3Gj4ZGxJdctzZA+JKGEYsJzf1T84DVhMS9gXDsgOVaDaRTzldLD3TDjcyJHjkWUqQV8W+2dPBJFWkWRjWqSKb1nrJzVl30Xk48t1q4ARULc8PMl0Ll57zE6ZkQjAvm0e9IIjFKvSpEfH0Rj48C6HaYk7cU6oMXxk6gVbPN4EE6CAYmsEiWPjRX7LvNdyWoUNJ1nAcMPf5GTQQJmDCEOtIYvZy7kdk3CPTkSWoGy234bFM1mI7gu06y8Rg+6uqZddwSAGAcWTNecxkMpg5T0ZCqms7MqkGMNyyqiKe0FnswMAKb87kYmK1TAcQNdaabzCPxex5YFR6tibWaqYwDdw3W8jRFJ2mgQ9reSatm5jzAC3m60sRzvA1M9+ZiFiPk3DWCE62FKZrIc7whsbQAyB8x2sHyq15BsP7XiLNXaghZaOZ8pmEDSwRsNCdUS2eA11ozRRHIpqPcALDMeY7QovbmXpo7RFP3853/J7tGKbtRp4nPICFtNl3eyL+PQrDElWxvKlu/yNiSTspaiFZ6mZ6BDpJyHJ7VlgKxjzPl3gA4khW3YypsLm0mepzCxlZIGqT+WZP+pmPkFU9J8sDvt0FN2j4uTnk7PK1Z55hrHoS8yl7ZGeG784IOYPPa/jAcW42yJvptcWwYFMjjlEGMO/0nnFQNt+HwiJ19Nn9XCZkff7c4/vr0Jz7IPQMSXc6wdY9zL6guqESlkvBPDbDSmY+BilH4gBkKR8hsXWdP5rPkVBISWD4UQsAjBcVN3WOw4opCB3fw8b4aThKa0qZVZTg0/tR2O2wsIvphB+1gPruCwu1uv2QOQBIWF965Iz5WYCERZhBxHrNElqElLLb8k0t+iWI+vDFFTQbnZEshaOAsmPYXkOpJgEimYKnsBA0vpuYjFarSsP2DSf8BAIWV/0mjQ9uFGuVYylSqAGATj7MYO9Yt9XJXWTyYQnbyIqg7tFHdchXgcSmNbbukxNCMnS3t96Obxq6HPkkD8jD3UpKFafFWmc3L0WmiXyORcaIzKZn3d5WVb45rlpu0zBEnRXM6lJeIgRZ3SKmPDCONXGocNZYa1KRZTdjGK5H6jUdXY7OA8afH7TT/CbSdnegZWH8syz0a1KYDOJ4+M01w2DDYBdArVKrdSvD/mAw2CU06Pcr3Vptu6IFRWYgq+Pb15o2+ToNeZTOP1oVEWuYdQa1tE853KqdHOOQZsq3fxij5PiHfyDr3y0Wt0JiH24rVjQpdj+kt4MJGPQhEtRGJ8v5UNVW+2SUzc/zUSYw8zz87m7+CdXNmJLXd0+W+ZkdjKeuka9MzUCE5zo7nCkYGyf6zA9VkS89ydrxUpFQKm7U9nZPyQKaioiM44fdJw/27w5Op394i36xStZOd/dqG6/ydYDi1kZneDNiiGD083L4R23Un2dCi7Xh4FSP3481Hsxqp6ObYXt763U/qbHdrgyvrwejuoaVECG9Tj6U15lb8xS7e9c3o2NN03RZ1x2tPhpcX5+85ZfPNrrtTod9mLHTfr412Kqx+/F/nfY3/EG6Fa1oRSta0YpWtKIVrWhFK1rRila0ohWtaEXfBP0fMU1VrsjDEQQAAAAASUVORK5CYII=;" vertex="1" parent="1">
          <mxGeometry x="448" y="218" width="93" height="87.53" as="geometry" />
        </mxCell>
        <mxCell id="4f5iD5GosNyRMmwosMSg-34" style="edgeStyle=none;shape=connector;rounded=0;orthogonalLoop=1;jettySize=auto;html=1;exitX=1;exitY=0.5;exitDx=0;exitDy=0;entryX=0;entryY=0.5;entryDx=0;entryDy=0;strokeColor=default;align=center;verticalAlign=middle;fontFamily=Helvetica;fontSize=11;fontColor=default;labelBackgroundColor=default;endArrow=classic;" edge="1" parent="1" source="4f5iD5GosNyRMmwosMSg-22" target="4f5iD5GosNyRMmwosMSg-30">
          <mxGeometry relative="1" as="geometry" />
        </mxCell>
        <mxCell id="4f5iD5GosNyRMmwosMSg-22" value="" style="shape=image;verticalLabelPosition=bottom;labelBackgroundColor=default;verticalAlign=top;aspect=fixed;imageAspect=0;image=data:image/png,iVBORw0KGgoAAAANSUhEUgAAAMwAAADACAMAAAB/Pny7AAABLFBMVEX/////0h7/nQAyND3/mwD/rQP/mQD/Mj3/lwD/1B7/lQD/nAkuMT3/0yj//vv/1CQoLT7/zRr/oiH/oBH/2Kr/qRv1zh//+ev/sCb/0zb/1zEQHz//+/T/9uz/vi7/pBv/8t//zDL/rDr/2xv/vhH/xhb/tQn/xzL/wzf/u1b/uC//2aSUfjBCQDthVzgcJj7/v0H/58T/27X/7dP/tEr/zUT/xn3/z5r/vmr/z5D/qED/sVjPrCd4aTSJdjLZtSRsXzbFpCpQSjn/wIL/u3MhMj3/miv/2VX/20XqwyCvkyuhiC04OTsAEkAAC0BYUDhmRDqeQDqBRTmzQTnfRToLMz3vSjhgOjvBQTqURjhQPzvzOzt1RzlPNTy/TzfhZjP/WDf/hi7/azT/yFksrJrEAAAVbklEQVR4nO1di1fiSNYfoKxOEUIgIZqgJoQWglFbAUGQVtvHTIs6O7s9j52d/h47O/////DVMw8kiBi0v3O458x0a+dRv7q37qvurXz33YpWtKIVrWhFK1rRila0ohWtaEUrWtGKVvT/hIqc3nocL6StjVq32+1UGHXw32sbW289qEWo1u5U+oPd43pdE1SvH+8O+ieddu2tB/cc2mgPr0d1TQbTSHbqo+the/utBzkPFWt7N6N6VoJ05NlJor+FUrY+utmrfePLaLs7ONUAnIJiEhMEWr3f3XjrASdSsVbZlSF8CkgACEL5uNL9JjXCdqdvSPCxUEEMD2KpI38+EjyYN/qdbw7OduU4G4NClrqs63rWMf0WJts3jSz+hSzHEUFJP/624Gy1d0FEvAgQzTD8Vs+yMpmyqmYyGfo/y+q1fMNwYoDwnbvtbwZOsdsHEgiRyFnDbHq3KiKUiRL9jXrbaxIuhXiAlO13vw3VVjtx8iBEohv+jns7gSIzganq7viGHuIBeeek9tZAiIQNAAwERjdMu6Gos5BwPKri2qYhB8IJ4U37rZlTG9bF9AIoG7ZbVp5GwkhVyq4fwgGw/rbMKXZGeji1GMo8TImyp+zaBgwY6wzabwhmqAVSL2ktDOUZSAJpazlCewBQ33szUTuWA7ZIvvVcIAFZvhTIGui/DZQNPS+gAKP3LPmaYA/qmYESya+9BW+6df5+7NS3qotDoXAs2xECmzdePTootk8lgcV0n71WHlHVNYUqkeqvrAaK7WPIhVy3rZexhTNHsXW+cuDxq1qcYqfOXozZsqOkAIWi8QyuUODpa/Kmw9dLOiImSHVNgea4+2pYxHoBWd9KD0uGKGldoKm9EpbuKQywpLFcQkKWz3gDpNHroKmNxNpPGwtFA/jDB6+hobcG3L5AM6WlH0NT9fPCF3iFgG3IPSnJrKaPJYpG31s6lgpzPIiMLQMLpqrPpgvqy1ZpNYcJmbw0LFinmTKT4/py02pb3PDLZro6OUbINZkk54fL9ASKQ645DS9tPRYjz+DmprJEMG1mYbA/tjy+EMJ+Gls2p7WlYdm+oX46kP0lKOU4GmY8gXy9LP1crGhcyNwlY8lkXIPJwNJczhozl0Be7oKhhDw6cdh0LkejbZ1kmSDbyxYyQgrTaKBeWYpG4/4ldNzlMwazpuewqVuKx7l1wt2M1gw35lF2efalM69tMR2gnSxBB3R1+IR7iQe3jikzDx6EVHZt8hWWCZfFmmI/z0xMYmiJ1PHHu/39+4/jpzO0aP0CX4qvXU9GrrrU2IBs+qumxla/nMgYNL47u3rIFR5+Ortbn40GoYv7DweFQiF3dX6RiAYpjDXSbuqRDWcMSFLLaHz+UCrh8eExHuzPRIPQ5YcCuTRXKJU+fUxMH6otxhqQuq1h/oWUxBi0fn6IR8eoUNqfyZrLg1IhuPTDx8TrFOai5Qcpy1mFMUZ2E7Cod7kACxni5YyVffGhFF6aK52PEwXNYwpNSlnORjQfIyU5ZWj8KTrAXOmnGay5K0QvLRwkA+erJj9MFQtPLEMvSZVdPsRHmLt4nzTd47PYpbnSfuKqQT0qEHAtVTB7We5hTn8tWt/PTYzwPhnM1cSlnxLlLMO0czZfSxHL1g2cJmVEqyIG5iwmZbnc4XkimI8HE2CuLgQYxP8LSPGZeKe5a9OmUgYcb2Jg5XKj/Gwwl8lgyo1GuRwDYzPxPk0RTIf649CMJzEazTVMO2WqmOMDxAshEczFJJgPHEx5hzxvrRG9uExVANTSMzVbfaoiJwJM9mqKBptBoQCoKcQG8TJ5zWDNXMCMLPA7SufMxJab/IFRNIoPU86h1XYBk7IIGNRYE7SDQttR+rB//ukqt3mV6AMgZf+w9PDhfP+McajwcBefHIwmvFdl2QCY3qJhkQzWZVHF3Aze3QyNZumnj+vji8v7s7skxhA5O9+/uxivX+xTbpbOmDIrr0UfGJBLvQA4Sstu8thfNsuR2S6HYNbK1HocknX/kUQpyvp4hnOGlPH6Orls/KlA4bNfNyJgIkrAZYsmta3BrSFhNdBj4XIMDFHRF2eHpR/3qQ/8RNjF/5kstNLhFceCEsBkmmS9Aq2TEpjtAaBgWklg2GjG+4XZ3vJjUJeHH8YB7vB5OxEwikfCZyCfpORsbo+YRmnERhqu1yaKzfhz0ETuQOHs7ESuUXt00cg3KS0alscEZjyADFkTM3OLU6ABYlKmMg0AdmvpgOHrfzLvL9A0MilRYwoWbDaZOktry/ZEnwoGW+xms7mTGhaMhj6wHBMAxDK14DQdMMUhzTDL9qMUEyqnJGEB4QdOLjuWRE8rT1u8ZhvlO8vN/CdRlWYCgJZOjmaLgdF3XiOROQWMx8AMU8kFbt8wMK+QLp9GKgOjpwOmNqBgnMbbgklnJ32DgUkKmZdNaIeCyfZTsZpczOYEM78TMOeFqMFSgelUbDAwcD4waH2cmcOrIYXn4xl55ig1DBo5pwOGaTNo9OZJ7q+XDg/OL9Zn4iG7BeP7q8OD5Fxm9GqXlgWkBKZ4PT9n3l/+WChtFs4ux4nyRgKZi/PDzVLhx/t5nGzhz6QJJjFnFgdzt0ki4c1NDGcqe4h4XZ7naF76cL6IoWGkzpn5FMD7+02easqd3V08WhREvu7ODniKfXM+zrA1k5ICKF7DuY0muuRgcoXSw6f9y4vMexREO+/R+PL+LNwB2Lybpxiaq+a0wAxZcek87gwa/y3IhxVKuatP95cfx5n3mBDNc1w9FMKk2eHlPOpZFXYmFaNZHLJNs+YcjiZa/zGS3isUCg8HP30629+/Pz/79OHgoVCI7ns8XM7juqbrzny3xwozHocA08BcTeRpCwWKoMD/jGcy58ASeM3pbDoXO3UWnM1T+Yf2N3Nz0mHyLlOULBbPaJ10Mhrt0+mR5lQwF/OCKeSe2sdllG5wxstlZYPEs2pGUSzyRxKY8YfS00CYlM1yAMh7FPIHYmYGpFXovD0CPNWEFM9eM80121USN2rvD+fkzAwpUxTXXjPwe7wyBpNqdma7z5KAXtU1HZ10wurOmh1tY4oYR/RxQgV8//3kXxiWg4iUxTNuqmIbjk5abnXHdGkSMCunEwGQqhmNZTQ9A4gSaiCbHrcSCFUty6pyA4jW90sxKH//xwFF8euXLw9ROGeCMUhVLNe1qgKP6plBUyp+DW1FSS+jyfeasqTzNSsIQMdmr7c83zRNH4se2xL8+FOI5uHLz798/flXgurLb7/9HsIpXF3ywauWjW83TN+zGDRbi/Z6s87c9HLNojhrossaUgen6pmOhCUCyo5PvTe8avjWWCH3999/e/fu3dcv3+e+/+cv+G+//f7PYMVwIVM8k0guhJJjkv0fxZYnur3pq9NrEKoNYlMVdLs5XlUJ+6uI5FE0fG+8kPsXAYDplz9+ffid//UL28cJ9jF3wvuBYyvMRPL3RCZulFpBoKgAZkP2TdGLCIyWrUckDxi000HogH/9xgC8+/rzH//4+i5Awyo4mEx6enSedLvFi4ABZpQZikKKO2di0WTZxobl8saQrOzoMdGDxi1dBpdk+r8ILATO1/Cv//V97sc7jqWnx2QKq0lebC77DUs5Cp+eYl9A9zjocjWqpPmg5Qi1JpjCa8R9Osj3l4elP355N51++e9NUfFQNURHIYj9CTSqXFTxz7CeUtq8uFXr9OtiiuQWFw8nJh6YOK9uGZqPDz8nYHn37n/EhifqyVx0dV2OPo+3faKWzME4/WGl9nJPc7tznM/nA8bIPK2hRtDgpVMVvAJN5o6+v/jfJCz/1oSBtHjxMlYk1cjiwz9zmyXAZCEeg3TceaHh7A6gFJ2z7BEfCVahQjSyZBea73FzHUACxD//PRXKn34Qe3oO4yspL1IDVUA2T/kzbDkbebcE+rWXYKmNpLhxoWuGvoiXT+FZY7UOFm+tEG0CqGz++e+vj6BEtqyrPh0rr5Ss8ucB/DwkltTEy+HgBWhExBxdHiKvgSw+lRKTPJUJmhzsFiJUtn/48z8Bnq//+fMHvxHZxHSZP8wrclCP7ZzAoJuFV5zG0LygCaU9+TSsbsLBeqzQWXLZz67Dq4WCIA7DaXj1HzgZtC4lExAOVBivy1EwQApmixedR+kF3U7FAe/HlLAKCOx8S7jL6hFFI3HBUXydSU1kH49UOER/CKEQMeQrRKgD+rK8LS6KrEq8/vk5MPn+oqzZZs0F0Oj1/jIBfzQJBcTUUW0klWNSgVkTD90Qp0ycFCaWQKSwGGegIaZCFSYTyPDor17P5B7non5NRWZy4KoIqZ99nZk04ARC7ZEXSCKcVtiCBmvlyYFPIZULkSzqPigYHAGKf+/x/hZZx/E6fj/bQs/Ki3qcQ8jkinICqT3fYbPjiIoghbSISkJbq67zuPopiXjzUtgmgY5gpM1I5X0N+DcWi5SqrDcALurYMDC66GRA1l+skxoG9U2kZweaQqwUf3bxc4QQ7/YJcz7EggLTFfNisIk0vEBPM39aXhTMnuCMEJvqra9B6uyXw/kNm4PwqqF3zNFhY/msXjHIYGMDCQKeqi71mKEm2BK2PcuL9tR12RqIiI1q9UgcGKChmyeB1c+ovIPnyby0KL8GwsSqFhYroQhZLz2A2lGYaOAeApBrC4LZYnWmePrCma72SFAeoCHvAHJT+DDckEJjdgs3YjZJhAwEC54GUZ3HsciRU0bIyQdMhI8XdTeLe6xoHuvmsAhIvT3SKBoWJCuENfgHBhe1IF82s9CI1hgAuZApPYKFKzaORffLIVuwHmd2Rlq8c7PDD/2Ajh8yHN3+pRHFw1wByn4MlxsXy2R2HNrJTTSo6jOtCPnqV3tEBLC0cqR49UAcBIZssXwRxMGFExssL8tWgdkL4dweOTTZRF/HrAvgaJCrib7UJDQYiwyiq1/1iJOG9Qh9QpVgiZ7+oio9IzytZ9GCoO1RGNNiTeNb1WA4HhUuOrF8nUCeilZ4RiIRDQraY4WrwDQb98dvCVKikQMRs3wnchQaXLA1qB/LLWHmeOFsEcHgFog5nEBYP0WcHKFP74Jgm0eRMkm+0Z+nGvCWODFQmBs6b4YcGwZYqGVDMIYcTwjpThwIlzXtDOdo1F4egLywfqqyxu9zpiloVXBOFmELXiQSvp8qaWoZQ+2BED/wBEAo8QOd4GgRV1OkZMxezzcop/Ejg5WDJR//yBqD1Z6hhxsewoua2tEplDLR7YJxWCPqbMkRhwhPmRAAVTnKs2l0jNbnv+psjhbKB+4xK4WnCaHq5yY59Y4cd+eJ/Yxq05F58IKq1YhXXBVopMcnhlginoxWfCOV3660NGA0ORa17Gl5orF1o/kZX4Bu6b1AW0Q7n1BmyCy+QMiyTV0m4VHT5Rnzquv77jTHpeoKL3HSr1Fs4XlP7ZBUPN92gziTShheqrbFs2xNqjezJwuD0UWwhBTXNqiXgUNG9kJUtaY7YVVu4x71p3OUcDLmEaRWBVss26B+kyES8vh3zAgs1OSwR18MzYjxcn0ySMqc2aRw32uCNaLNP0HRhYRcn9liO2Q9sti2k7MIGGYy41XzWA4k/JKsOdkW9GiK2YErcdYgjzEs7z+1Z071MQS+F3E8uH1arI62yDoASW4+XMaKQo/ww1btiam1eEASnQrVnvD7k7HgGZPqvWiLS2BrRwtgCfb/6VFZ4dtVLAEQTHY5PUbD0hEwukfNTb3eegKLi+N9qB9F9R12RbktXkiZ4QjgVGTH5SO3Gj4ZGxJdctzZA+JKGEYsJzf1T84DVhMS9gXDsgOVaDaRTzldLD3TDjcyJHjkWUqQV8W+2dPBJFWkWRjWqSKb1nrJzVl30Xk48t1q4ARULc8PMl0Ll57zE6ZkQjAvm0e9IIjFKvSpEfH0Rj48C6HaYk7cU6oMXxk6gVbPN4EE6CAYmsEiWPjRX7LvNdyWoUNJ1nAcMPf5GTQQJmDCEOtIYvZy7kdk3CPTkSWoGy234bFM1mI7gu06y8Rg+6uqZddwSAGAcWTNecxkMpg5T0ZCqms7MqkGMNyyqiKe0FnswMAKb87kYmK1TAcQNdaabzCPxex5YFR6tibWaqYwDdw3W8jRFJ2mgQ9reSatm5jzAC3m60sRzvA1M9+ZiFiPk3DWCE62FKZrIc7whsbQAyB8x2sHyq15BsP7XiLNXaghZaOZ8pmEDSwRsNCdUS2eA11ozRRHIpqPcALDMeY7QovbmXpo7RFP3853/J7tGKbtRp4nPICFtNl3eyL+PQrDElWxvKlu/yNiSTspaiFZ6mZ6BDpJyHJ7VlgKxjzPl3gA4khW3YypsLm0mepzCxlZIGqT+WZP+pmPkFU9J8sDvt0FN2j4uTnk7PK1Z55hrHoS8yl7ZGeG784IOYPPa/jAcW42yJvptcWwYFMjjlEGMO/0nnFQNt+HwiJ19Nn9XCZkff7c4/vr0Jz7IPQMSXc6wdY9zL6guqESlkvBPDbDSmY+BilH4gBkKR8hsXWdP5rPkVBISWD4UQsAjBcVN3WOw4opCB3fw8b4aThKa0qZVZTg0/tR2O2wsIvphB+1gPruCwu1uv2QOQBIWF965Iz5WYCERZhBxHrNElqElLLb8k0t+iWI+vDFFTQbnZEshaOAsmPYXkOpJgEimYKnsBA0vpuYjFarSsP2DSf8BAIWV/0mjQ9uFGuVYylSqAGATj7MYO9Yt9XJXWTyYQnbyIqg7tFHdchXgcSmNbbukxNCMnS3t96Obxq6HPkkD8jD3UpKFafFWmc3L0WmiXyORcaIzKZn3d5WVb45rlpu0zBEnRXM6lJeIgRZ3SKmPDCONXGocNZYa1KRZTdjGK5H6jUdXY7OA8afH7TT/CbSdnegZWH8syz0a1KYDOJ4+M01w2DDYBdArVKrdSvD/mAw2CU06Pcr3Vptu6IFRWYgq+Pb15o2+ToNeZTOP1oVEWuYdQa1tE853KqdHOOQZsq3fxij5PiHfyDr3y0Wt0JiH24rVjQpdj+kt4MJGPQhEtRGJ8v5UNVW+2SUzc/zUSYw8zz87m7+CdXNmJLXd0+W+ZkdjKeuka9MzUCE5zo7nCkYGyf6zA9VkS89ydrxUpFQKm7U9nZPyQKaioiM44fdJw/27w5Op394i36xStZOd/dqG6/ydYDi1kZneDNiiGD083L4R23Un2dCi7Xh4FSP3481Hsxqp6ObYXt763U/qbHdrgyvrwejuoaVECG9Tj6U15lb8xS7e9c3o2NN03RZ1x2tPhpcX5+85ZfPNrrtTod9mLHTfr412Kqx+/F/nfY3/EG6Fa1oRSta0YpWtKIVrWhFK1rRila0ohWtaEXfBP0fMU1VrsjDEQQAAAAASUVORK5CYII=;" vertex="1" parent="1">
          <mxGeometry x="448" y="339" width="93" height="87.53" as="geometry" />
        </mxCell>
        <mxCell id="4f5iD5GosNyRMmwosMSg-23" value="Models to summarize/provide caption" style="rounded=0;whiteSpace=wrap;html=1;" vertex="1" parent="1">
          <mxGeometry x="421" y="137" width="153" height="60" as="geometry" />
        </mxCell>
        <mxCell id="4f5iD5GosNyRMmwosMSg-31" value="" style="group" vertex="1" connectable="0" parent="1">
          <mxGeometry x="591" y="206" width="120" height="81" as="geometry" />
        </mxCell>
        <mxCell id="4f5iD5GosNyRMmwosMSg-27" value="summary" style="rounded=0;whiteSpace=wrap;html=1;" vertex="1" parent="4f5iD5GosNyRMmwosMSg-31">
          <mxGeometry y="45.5" width="120" height="35.5" as="geometry" />
        </mxCell>
        <mxCell id="4f5iD5GosNyRMmwosMSg-29" value="" style="shape=image;html=1;verticalAlign=top;verticalLabelPosition=bottom;labelBackgroundColor=#ffffff;imageAspect=0;aspect=fixed;image=https://icons.diagrams.net/icon-cache1/Boxicons_Solid_Vol_2-2639/bxs-notepad-863.svg;fontFamily=Helvetica;fontSize=11;fontColor=default;" vertex="1" parent="4f5iD5GosNyRMmwosMSg-31">
          <mxGeometry x="40.110000000000014" width="39.77" height="39.77" as="geometry" />
        </mxCell>
        <mxCell id="4f5iD5GosNyRMmwosMSg-35" value="" style="group" vertex="1" connectable="0" parent="1">
          <mxGeometry x="597" y="316" width="120" height="96" as="geometry" />
        </mxCell>
        <mxCell id="4f5iD5GosNyRMmwosMSg-26" value="" style="sketch=0;outlineConnect=0;fontColor=#232F3E;gradientColor=none;fillColor=#000000;strokeColor=none;dashed=0;verticalLabelPosition=bottom;verticalAlign=top;align=center;html=1;fontSize=12;fontStyle=0;aspect=fixed;pointerEvents=1;shape=mxgraph.aws4.container_registry_image;" vertex="1" parent="4f5iD5GosNyRMmwosMSg-35">
          <mxGeometry x="34.110000000000014" width="48" height="48" as="geometry" />
        </mxCell>
        <mxCell id="4f5iD5GosNyRMmwosMSg-30" value="caption" style="rounded=0;whiteSpace=wrap;html=1;" vertex="1" parent="4f5iD5GosNyRMmwosMSg-35">
          <mxGeometry y="60.5" width="120" height="35.5" as="geometry" />
        </mxCell>
        <mxCell id="4f5iD5GosNyRMmwosMSg-55" style="edgeStyle=none;shape=connector;rounded=0;orthogonalLoop=1;jettySize=auto;html=1;exitX=0;exitY=0.5;exitDx=0;exitDy=0;strokeColor=default;align=center;verticalAlign=middle;fontFamily=Helvetica;fontSize=11;fontColor=default;labelBackgroundColor=default;endArrow=none;startArrow=classic;startFill=1;endFill=0;" edge="1" parent="1" source="4f5iD5GosNyRMmwosMSg-41" target="4f5iD5GosNyRMmwosMSg-26">
          <mxGeometry relative="1" as="geometry" />
        </mxCell>
        <mxCell id="4f5iD5GosNyRMmwosMSg-41" value="Document Store" style="rounded=0;whiteSpace=wrap;html=1;fontFamily=Helvetica;fontSize=11;fontColor=default;labelBackgroundColor=default;labelPosition=center;verticalLabelPosition=top;align=center;verticalAlign=bottom;" vertex="1" parent="1">
          <mxGeometry x="789" y="171" width="307" height="75" as="geometry" />
        </mxCell>
        <mxCell id="4f5iD5GosNyRMmwosMSg-48" style="edgeStyle=none;shape=connector;rounded=0;orthogonalLoop=1;jettySize=auto;html=1;exitX=0.5;exitY=1;exitDx=0;exitDy=0;strokeColor=default;align=center;verticalAlign=middle;fontFamily=Helvetica;fontSize=11;fontColor=default;labelBackgroundColor=default;endArrow=none;dashed=1;endFill=0;" edge="1" parent="1" source="4f5iD5GosNyRMmwosMSg-42" target="4f5iD5GosNyRMmwosMSg-46">
          <mxGeometry relative="1" as="geometry" />
        </mxCell>
        <mxCell id="4f5iD5GosNyRMmwosMSg-50" value="doc_id" style="edgeLabel;html=1;align=center;verticalAlign=middle;resizable=0;points=[];fontFamily=Helvetica;fontSize=11;fontColor=default;labelBackgroundColor=default;" vertex="1" connectable="0" parent="4f5iD5GosNyRMmwosMSg-48">
          <mxGeometry x="0.0174" y="2" relative="1" as="geometry">
            <mxPoint as="offset" />
          </mxGeometry>
        </mxCell>
        <mxCell id="4f5iD5GosNyRMmwosMSg-42" value="" style="shape=image;html=1;verticalAlign=top;verticalLabelPosition=bottom;labelBackgroundColor=#ffffff;imageAspect=0;aspect=fixed;image=https://icons.diagrams.net/icon-cache1/Boxicons_Solid_Vol_2-2639/bxs-notepad-863.svg;fontFamily=Helvetica;fontSize=11;fontColor=default;" vertex="1" parent="1">
          <mxGeometry x="851.11" y="183.12" width="39.77" height="39.77" as="geometry" />
        </mxCell>
        <mxCell id="4f5iD5GosNyRMmwosMSg-44" value="" style="sketch=0;outlineConnect=0;fontColor=#232F3E;gradientColor=none;fillColor=#000000;strokeColor=none;dashed=0;verticalLabelPosition=bottom;verticalAlign=top;align=center;html=1;fontSize=12;fontStyle=0;aspect=fixed;pointerEvents=1;shape=mxgraph.aws4.container_registry_image;" vertex="1" parent="1">
          <mxGeometry x="986" y="179" width="48" height="48" as="geometry" />
        </mxCell>
        <mxCell id="4f5iD5GosNyRMmwosMSg-59" style="edgeStyle=none;shape=connector;rounded=0;orthogonalLoop=1;jettySize=auto;html=1;exitX=1;exitY=0.5;exitDx=0;exitDy=0;strokeColor=default;align=center;verticalAlign=middle;fontFamily=Helvetica;fontSize=11;fontColor=default;labelBackgroundColor=default;endArrow=classic;entryX=0;entryY=0.5;entryDx=0;entryDy=0;" edge="1" parent="1" source="4f5iD5GosNyRMmwosMSg-45" target="4f5iD5GosNyRMmwosMSg-58">
          <mxGeometry relative="1" as="geometry">
            <mxPoint x="1147" y="405" as="targetPoint" />
          </mxGeometry>
        </mxCell>
        <mxCell id="4f5iD5GosNyRMmwosMSg-45" value="Vector Store" style="rounded=0;whiteSpace=wrap;html=1;fontFamily=Helvetica;fontSize=11;fontColor=default;labelBackgroundColor=default;labelPosition=center;verticalLabelPosition=bottom;align=center;verticalAlign=top;" vertex="1" parent="1">
          <mxGeometry x="789" y="367" width="307" height="75" as="geometry" />
        </mxCell>
        <mxCell id="4f5iD5GosNyRMmwosMSg-46" value="summary" style="rounded=0;whiteSpace=wrap;html=1;" vertex="1" parent="1">
          <mxGeometry x="811" y="386.27" width="120" height="35.5" as="geometry" />
        </mxCell>
        <mxCell id="4f5iD5GosNyRMmwosMSg-51" style="edgeStyle=none;shape=connector;rounded=0;orthogonalLoop=1;jettySize=auto;html=1;exitX=0.5;exitY=0;exitDx=0;exitDy=0;strokeColor=default;align=center;verticalAlign=middle;fontFamily=Helvetica;fontSize=11;fontColor=default;labelBackgroundColor=default;endArrow=none;endFill=0;dashed=1;" edge="1" parent="1" source="4f5iD5GosNyRMmwosMSg-47" target="4f5iD5GosNyRMmwosMSg-44">
          <mxGeometry relative="1" as="geometry" />
        </mxCell>
        <mxCell id="4f5iD5GosNyRMmwosMSg-52" value="doc_id" style="edgeLabel;html=1;align=center;verticalAlign=middle;resizable=0;points=[];fontFamily=Helvetica;fontSize=11;fontColor=default;labelBackgroundColor=default;" vertex="1" connectable="0" parent="4f5iD5GosNyRMmwosMSg-51">
          <mxGeometry x="0.061" y="1" relative="1" as="geometry">
            <mxPoint as="offset" />
          </mxGeometry>
        </mxCell>
        <mxCell id="4f5iD5GosNyRMmwosMSg-47" value="caption" style="rounded=0;whiteSpace=wrap;html=1;" vertex="1" parent="1">
          <mxGeometry x="950" y="386.75" width="120" height="35.5" as="geometry" />
        </mxCell>
        <mxCell id="4f5iD5GosNyRMmwosMSg-69" style="edgeStyle=none;shape=connector;rounded=0;orthogonalLoop=1;jettySize=auto;html=1;exitX=1;exitY=0.5;exitDx=0;exitDy=0;exitPerimeter=0;entryX=0;entryY=0.5;entryDx=0;entryDy=0;strokeColor=default;align=center;verticalAlign=middle;fontFamily=Helvetica;fontSize=11;fontColor=default;labelBackgroundColor=default;endArrow=classic;" edge="1" parent="1" source="4f5iD5GosNyRMmwosMSg-53" target="4f5iD5GosNyRMmwosMSg-67">
          <mxGeometry relative="1" as="geometry" />
        </mxCell>
        <mxCell id="4f5iD5GosNyRMmwosMSg-53" value="Vector DB" style="shape=cylinder3;whiteSpace=wrap;html=1;boundedLbl=1;backgroundOutline=1;size=15;fontFamily=Helvetica;fontSize=11;fontColor=default;labelBackgroundColor=default;labelPosition=center;verticalLabelPosition=top;align=center;verticalAlign=bottom;" vertex="1" parent="1">
          <mxGeometry x="1248" y="316" width="60" height="80" as="geometry" />
        </mxCell>
        <mxCell id="4f5iD5GosNyRMmwosMSg-54" style="edgeStyle=none;shape=connector;rounded=0;orthogonalLoop=1;jettySize=auto;html=1;exitX=1;exitY=0.5;exitDx=0;exitDy=0;entryX=0;entryY=0.5;entryDx=0;entryDy=0;strokeColor=default;align=center;verticalAlign=middle;fontFamily=Helvetica;fontSize=11;fontColor=default;labelBackgroundColor=default;endArrow=classic;" edge="1" parent="1" source="4f5iD5GosNyRMmwosMSg-29" target="4f5iD5GosNyRMmwosMSg-41">
          <mxGeometry relative="1" as="geometry" />
        </mxCell>
        <mxCell id="4f5iD5GosNyRMmwosMSg-56" style="edgeStyle=none;shape=connector;rounded=0;orthogonalLoop=1;jettySize=auto;html=1;exitX=1;exitY=0.5;exitDx=0;exitDy=0;entryX=0;entryY=0.5;entryDx=0;entryDy=0;strokeColor=default;align=center;verticalAlign=middle;fontFamily=Helvetica;fontSize=11;fontColor=default;labelBackgroundColor=default;endArrow=classic;dashed=1;dashPattern=8 8;" edge="1" parent="1" source="4f5iD5GosNyRMmwosMSg-27" target="4f5iD5GosNyRMmwosMSg-45">
          <mxGeometry relative="1" as="geometry" />
        </mxCell>
        <mxCell id="4f5iD5GosNyRMmwosMSg-57" style="edgeStyle=none;shape=connector;rounded=0;orthogonalLoop=1;jettySize=auto;html=1;exitX=1;exitY=0.5;exitDx=0;exitDy=0;entryX=0;entryY=0.5;entryDx=0;entryDy=0;strokeColor=default;align=center;verticalAlign=middle;fontFamily=Helvetica;fontSize=11;fontColor=default;labelBackgroundColor=default;endArrow=classic;dashed=1;dashPattern=8 8;" edge="1" parent="1" source="4f5iD5GosNyRMmwosMSg-30" target="4f5iD5GosNyRMmwosMSg-45">
          <mxGeometry relative="1" as="geometry" />
        </mxCell>
        <mxCell id="4f5iD5GosNyRMmwosMSg-58" value="" style="shape=image;verticalLabelPosition=bottom;labelBackgroundColor=default;verticalAlign=top;aspect=fixed;imageAspect=0;image=data:image/png,iVBORw0KGgoAAAANSUhEUgAAAMwAAADACAMAAAB/Pny7AAABLFBMVEX/////0h7/nQAyND3/mwD/rQP/mQD/Mj3/lwD/1B7/lQD/nAkuMT3/0yj//vv/1CQoLT7/zRr/oiH/oBH/2Kr/qRv1zh//+ev/sCb/0zb/1zEQHz//+/T/9uz/vi7/pBv/8t//zDL/rDr/2xv/vhH/xhb/tQn/xzL/wzf/u1b/uC//2aSUfjBCQDthVzgcJj7/v0H/58T/27X/7dP/tEr/zUT/xn3/z5r/vmr/z5D/qED/sVjPrCd4aTSJdjLZtSRsXzbFpCpQSjn/wIL/u3MhMj3/miv/2VX/20XqwyCvkyuhiC04OTsAEkAAC0BYUDhmRDqeQDqBRTmzQTnfRToLMz3vSjhgOjvBQTqURjhQPzvzOzt1RzlPNTy/TzfhZjP/WDf/hi7/azT/yFksrJrEAAAVbklEQVR4nO1di1fiSNYfoKxOEUIgIZqgJoQWglFbAUGQVtvHTIs6O7s9j52d/h47O/////DVMw8kiBi0v3O458x0a+dRv7q37qvurXz33YpWtKIVrWhFK1rRila0ohWtaEUrWtGKVvT/hIqc3nocL6StjVq32+1UGHXw32sbW289qEWo1u5U+oPd43pdE1SvH+8O+ieddu2tB/cc2mgPr0d1TQbTSHbqo+the/utBzkPFWt7N6N6VoJ05NlJor+FUrY+utmrfePLaLs7ONUAnIJiEhMEWr3f3XjrASdSsVbZlSF8CkgACEL5uNL9JjXCdqdvSPCxUEEMD2KpI38+EjyYN/qdbw7OduU4G4NClrqs63rWMf0WJts3jSz+hSzHEUFJP/624Gy1d0FEvAgQzTD8Vs+yMpmyqmYyGfo/y+q1fMNwYoDwnbvtbwZOsdsHEgiRyFnDbHq3KiKUiRL9jXrbaxIuhXiAlO13vw3VVjtx8iBEohv+jns7gSIzganq7viGHuIBeeek9tZAiIQNAAwERjdMu6Gos5BwPKri2qYhB8IJ4U37rZlTG9bF9AIoG7ZbVp5GwkhVyq4fwgGw/rbMKXZGeji1GMo8TImyp+zaBgwY6wzabwhmqAVSL2ktDOUZSAJpazlCewBQ33szUTuWA7ZIvvVcIAFZvhTIGui/DZQNPS+gAKP3LPmaYA/qmYESya+9BW+6df5+7NS3qotDoXAs2xECmzdePTootk8lgcV0n71WHlHVNYUqkeqvrAaK7WPIhVy3rZexhTNHsXW+cuDxq1qcYqfOXozZsqOkAIWi8QyuUODpa/Kmw9dLOiImSHVNgea4+2pYxHoBWd9KD0uGKGldoKm9EpbuKQywpLFcQkKWz3gDpNHroKmNxNpPGwtFA/jDB6+hobcG3L5AM6WlH0NT9fPCF3iFgG3IPSnJrKaPJYpG31s6lgpzPIiMLQMLpqrPpgvqy1ZpNYcJmbw0LFinmTKT4/py02pb3PDLZro6OUbINZkk54fL9ASKQ645DS9tPRYjz+DmprJEMG1mYbA/tjy+EMJ+Gls2p7WlYdm+oX46kP0lKOU4GmY8gXy9LP1crGhcyNwlY8lkXIPJwNJczhozl0Be7oKhhDw6cdh0LkejbZ1kmSDbyxYyQgrTaKBeWYpG4/4ldNzlMwazpuewqVuKx7l1wt2M1gw35lF2efalM69tMR2gnSxBB3R1+IR7iQe3jikzDx6EVHZt8hWWCZfFmmI/z0xMYmiJ1PHHu/39+4/jpzO0aP0CX4qvXU9GrrrU2IBs+qumxla/nMgYNL47u3rIFR5+Ortbn40GoYv7DweFQiF3dX6RiAYpjDXSbuqRDWcMSFLLaHz+UCrh8eExHuzPRIPQ5YcCuTRXKJU+fUxMH6otxhqQuq1h/oWUxBi0fn6IR8eoUNqfyZrLg1IhuPTDx8TrFOai5Qcpy1mFMUZ2E7Cod7kACxni5YyVffGhFF6aK52PEwXNYwpNSlnORjQfIyU5ZWj8KTrAXOmnGay5K0QvLRwkA+erJj9MFQtPLEMvSZVdPsRHmLt4nzTd47PYpbnSfuKqQT0qEHAtVTB7We5hTn8tWt/PTYzwPhnM1cSlnxLlLMO0czZfSxHL1g2cJmVEqyIG5iwmZbnc4XkimI8HE2CuLgQYxP8LSPGZeKe5a9OmUgYcb2Jg5XKj/Gwwl8lgyo1GuRwDYzPxPk0RTIf649CMJzEazTVMO2WqmOMDxAshEczFJJgPHEx5hzxvrRG9uExVANTSMzVbfaoiJwJM9mqKBptBoQCoKcQG8TJ5zWDNXMCMLPA7SufMxJab/IFRNIoPU86h1XYBk7IIGNRYE7SDQttR+rB//ukqt3mV6AMgZf+w9PDhfP+McajwcBefHIwmvFdl2QCY3qJhkQzWZVHF3Aze3QyNZumnj+vji8v7s7skxhA5O9+/uxivX+xTbpbOmDIrr0UfGJBLvQA4Sstu8thfNsuR2S6HYNbK1HocknX/kUQpyvp4hnOGlPH6Orls/KlA4bNfNyJgIkrAZYsmta3BrSFhNdBj4XIMDFHRF2eHpR/3qQ/8RNjF/5kstNLhFceCEsBkmmS9Aq2TEpjtAaBgWklg2GjG+4XZ3vJjUJeHH8YB7vB5OxEwikfCZyCfpORsbo+YRmnERhqu1yaKzfhz0ETuQOHs7ESuUXt00cg3KS0alscEZjyADFkTM3OLU6ABYlKmMg0AdmvpgOHrfzLvL9A0MilRYwoWbDaZOktry/ZEnwoGW+xms7mTGhaMhj6wHBMAxDK14DQdMMUhzTDL9qMUEyqnJGEB4QdOLjuWRE8rT1u8ZhvlO8vN/CdRlWYCgJZOjmaLgdF3XiOROQWMx8AMU8kFbt8wMK+QLp9GKgOjpwOmNqBgnMbbgklnJ32DgUkKmZdNaIeCyfZTsZpczOYEM78TMOeFqMFSgelUbDAwcD4waH2cmcOrIYXn4xl55ig1DBo5pwOGaTNo9OZJ7q+XDg/OL9Zn4iG7BeP7q8OD5Fxm9GqXlgWkBKZ4PT9n3l/+WChtFs4ux4nyRgKZi/PDzVLhx/t5nGzhz6QJJjFnFgdzt0ki4c1NDGcqe4h4XZ7naF76cL6IoWGkzpn5FMD7+02easqd3V08WhREvu7ODniKfXM+zrA1k5ICKF7DuY0muuRgcoXSw6f9y4vMexREO+/R+PL+LNwB2Lybpxiaq+a0wAxZcek87gwa/y3IhxVKuatP95cfx5n3mBDNc1w9FMKk2eHlPOpZFXYmFaNZHLJNs+YcjiZa/zGS3isUCg8HP30629+/Pz/79OHgoVCI7ns8XM7juqbrzny3xwozHocA08BcTeRpCwWKoMD/jGcy58ASeM3pbDoXO3UWnM1T+Yf2N3Nz0mHyLlOULBbPaJ10Mhrt0+mR5lQwF/OCKeSe2sdllG5wxstlZYPEs2pGUSzyRxKY8YfS00CYlM1yAMh7FPIHYmYGpFXovD0CPNWEFM9eM80121USN2rvD+fkzAwpUxTXXjPwe7wyBpNqdma7z5KAXtU1HZ10wurOmh1tY4oYR/RxQgV8//3kXxiWg4iUxTNuqmIbjk5abnXHdGkSMCunEwGQqhmNZTQ9A4gSaiCbHrcSCFUty6pyA4jW90sxKH//xwFF8euXLw9ROGeCMUhVLNe1qgKP6plBUyp+DW1FSS+jyfeasqTzNSsIQMdmr7c83zRNH4se2xL8+FOI5uHLz798/flXgurLb7/9HsIpXF3ywauWjW83TN+zGDRbi/Z6s87c9HLNojhrossaUgen6pmOhCUCyo5PvTe8avjWWCH3999/e/fu3dcv3+e+/+cv+G+//f7PYMVwIVM8k0guhJJjkv0fxZYnur3pq9NrEKoNYlMVdLs5XlUJ+6uI5FE0fG+8kPsXAYDplz9+ffid//UL28cJ9jF3wvuBYyvMRPL3RCZulFpBoKgAZkP2TdGLCIyWrUckDxi000HogH/9xgC8+/rzH//4+i5Awyo4mEx6enSedLvFi4ABZpQZikKKO2di0WTZxobl8saQrOzoMdGDxi1dBpdk+r8ILATO1/Cv//V97sc7jqWnx2QKq0lebC77DUs5Cp+eYl9A9zjocjWqpPmg5Qi1JpjCa8R9Osj3l4elP355N51++e9NUfFQNURHIYj9CTSqXFTxz7CeUtq8uFXr9OtiiuQWFw8nJh6YOK9uGZqPDz8nYHn37n/EhifqyVx0dV2OPo+3faKWzME4/WGl9nJPc7tznM/nA8bIPK2hRtDgpVMVvAJN5o6+v/jfJCz/1oSBtHjxMlYk1cjiwz9zmyXAZCEeg3TceaHh7A6gFJ2z7BEfCVahQjSyZBea73FzHUACxD//PRXKn34Qe3oO4yspL1IDVUA2T/kzbDkbebcE+rWXYKmNpLhxoWuGvoiXT+FZY7UOFm+tEG0CqGz++e+vj6BEtqyrPh0rr5Ss8ucB/DwkltTEy+HgBWhExBxdHiKvgSw+lRKTPJUJmhzsFiJUtn/48z8Bnq//+fMHvxHZxHSZP8wrclCP7ZzAoJuFV5zG0LygCaU9+TSsbsLBeqzQWXLZz67Dq4WCIA7DaXj1HzgZtC4lExAOVBivy1EwQApmixedR+kF3U7FAe/HlLAKCOx8S7jL6hFFI3HBUXydSU1kH49UOER/CKEQMeQrRKgD+rK8LS6KrEq8/vk5MPn+oqzZZs0F0Oj1/jIBfzQJBcTUUW0klWNSgVkTD90Qp0ycFCaWQKSwGGegIaZCFSYTyPDor17P5B7non5NRWZy4KoIqZ99nZk04ARC7ZEXSCKcVtiCBmvlyYFPIZULkSzqPigYHAGKf+/x/hZZx/E6fj/bQs/Ki3qcQ8jkinICqT3fYbPjiIoghbSISkJbq67zuPopiXjzUtgmgY5gpM1I5X0N+DcWi5SqrDcALurYMDC66GRA1l+skxoG9U2kZweaQqwUf3bxc4QQ7/YJcz7EggLTFfNisIk0vEBPM39aXhTMnuCMEJvqra9B6uyXw/kNm4PwqqF3zNFhY/msXjHIYGMDCQKeqi71mKEm2BK2PcuL9tR12RqIiI1q9UgcGKChmyeB1c+ovIPnyby0KL8GwsSqFhYroQhZLz2A2lGYaOAeApBrC4LZYnWmePrCma72SFAeoCHvAHJT+DDckEJjdgs3YjZJhAwEC54GUZ3HsciRU0bIyQdMhI8XdTeLe6xoHuvmsAhIvT3SKBoWJCuENfgHBhe1IF82s9CI1hgAuZApPYKFKzaORffLIVuwHmd2Rlq8c7PDD/2Ajh8yHN3+pRHFw1wByn4MlxsXy2R2HNrJTTSo6jOtCPnqV3tEBLC0cqR49UAcBIZssXwRxMGFExssL8tWgdkL4dweOTTZRF/HrAvgaJCrib7UJDQYiwyiq1/1iJOG9Qh9QpVgiZ7+oio9IzytZ9GCoO1RGNNiTeNb1WA4HhUuOrF8nUCeilZ4RiIRDQraY4WrwDQb98dvCVKikQMRs3wnchQaXLA1qB/LLWHmeOFsEcHgFog5nEBYP0WcHKFP74Jgm0eRMkm+0Z+nGvCWODFQmBs6b4YcGwZYqGVDMIYcTwjpThwIlzXtDOdo1F4egLywfqqyxu9zpiloVXBOFmELXiQSvp8qaWoZQ+2BED/wBEAo8QOd4GgRV1OkZMxezzcop/Ejg5WDJR//yBqD1Z6hhxsewoua2tEplDLR7YJxWCPqbMkRhwhPmRAAVTnKs2l0jNbnv+psjhbKB+4xK4WnCaHq5yY59Y4cd+eJ/Yxq05F58IKq1YhXXBVopMcnhlginoxWfCOV3660NGA0ORa17Gl5orF1o/kZX4Bu6b1AW0Q7n1BmyCy+QMiyTV0m4VHT5Rnzquv77jTHpeoKL3HSr1Fs4XlP7ZBUPN92gziTShheqrbFs2xNqjezJwuD0UWwhBTXNqiXgUNG9kJUtaY7YVVu4x71p3OUcDLmEaRWBVss26B+kyES8vh3zAgs1OSwR18MzYjxcn0ySMqc2aRw32uCNaLNP0HRhYRcn9liO2Q9sti2k7MIGGYy41XzWA4k/JKsOdkW9GiK2YErcdYgjzEs7z+1Z071MQS+F3E8uH1arI62yDoASW4+XMaKQo/ww1btiam1eEASnQrVnvD7k7HgGZPqvWiLS2BrRwtgCfb/6VFZ4dtVLAEQTHY5PUbD0hEwukfNTb3eegKLi+N9qB9F9R12RbktXkiZ4QjgVGTH5SO3Gj4ZGxJdctzZA+JKGEYsJzf1T84DVhMS9gXDsgOVaDaRTzldLD3TDjcyJHjkWUqQV8W+2dPBJFWkWRjWqSKb1nrJzVl30Xk48t1q4ARULc8PMl0Ll57zE6ZkQjAvm0e9IIjFKvSpEfH0Rj48C6HaYk7cU6oMXxk6gVbPN4EE6CAYmsEiWPjRX7LvNdyWoUNJ1nAcMPf5GTQQJmDCEOtIYvZy7kdk3CPTkSWoGy234bFM1mI7gu06y8Rg+6uqZddwSAGAcWTNecxkMpg5T0ZCqms7MqkGMNyyqiKe0FnswMAKb87kYmK1TAcQNdaabzCPxex5YFR6tibWaqYwDdw3W8jRFJ2mgQ9reSatm5jzAC3m60sRzvA1M9+ZiFiPk3DWCE62FKZrIc7whsbQAyB8x2sHyq15BsP7XiLNXaghZaOZ8pmEDSwRsNCdUS2eA11ozRRHIpqPcALDMeY7QovbmXpo7RFP3853/J7tGKbtRp4nPICFtNl3eyL+PQrDElWxvKlu/yNiSTspaiFZ6mZ6BDpJyHJ7VlgKxjzPl3gA4khW3YypsLm0mepzCxlZIGqT+WZP+pmPkFU9J8sDvt0FN2j4uTnk7PK1Z55hrHoS8yl7ZGeG784IOYPPa/jAcW42yJvptcWwYFMjjlEGMO/0nnFQNt+HwiJ19Nn9XCZkff7c4/vr0Jz7IPQMSXc6wdY9zL6guqESlkvBPDbDSmY+BilH4gBkKR8hsXWdP5rPkVBISWD4UQsAjBcVN3WOw4opCB3fw8b4aThKa0qZVZTg0/tR2O2wsIvphB+1gPruCwu1uv2QOQBIWF965Iz5WYCERZhBxHrNElqElLLb8k0t+iWI+vDFFTQbnZEshaOAsmPYXkOpJgEimYKnsBA0vpuYjFarSsP2DSf8BAIWV/0mjQ9uFGuVYylSqAGATj7MYO9Yt9XJXWTyYQnbyIqg7tFHdchXgcSmNbbukxNCMnS3t96Obxq6HPkkD8jD3UpKFafFWmc3L0WmiXyORcaIzKZn3d5WVb45rlpu0zBEnRXM6lJeIgRZ3SKmPDCONXGocNZYa1KRZTdjGK5H6jUdXY7OA8afH7TT/CbSdnegZWH8syz0a1KYDOJ4+M01w2DDYBdArVKrdSvD/mAw2CU06Pcr3Vptu6IFRWYgq+Pb15o2+ToNeZTOP1oVEWuYdQa1tE853KqdHOOQZsq3fxij5PiHfyDr3y0Wt0JiH24rVjQpdj+kt4MJGPQhEtRGJ8v5UNVW+2SUzc/zUSYw8zz87m7+CdXNmJLXd0+W+ZkdjKeuka9MzUCE5zo7nCkYGyf6zA9VkS89ydrxUpFQKm7U9nZPyQKaioiM44fdJw/27w5Op394i36xStZOd/dqG6/ydYDi1kZneDNiiGD083L4R23Un2dCi7Xh4FSP3481Hsxqp6ObYXt763U/qbHdrgyvrwejuoaVECG9Tj6U15lb8xS7e9c3o2NN03RZ1x2tPhpcX5+85ZfPNrrtTod9mLHTfr412Kqx+/F/nfY3/EG6Fa1oRSta0YpWtKIVrWhFK1rRila0ohWtaEXfBP0fMU1VrsjDEQQAAAAASUVORK5CYII=;" vertex="1" parent="1">
          <mxGeometry x="1144" y="365" width="93" height="87.53" as="geometry" />
        </mxCell>
        <mxCell id="4f5iD5GosNyRMmwosMSg-61" value="text embedding" style="rounded=0;whiteSpace=wrap;html=1;" vertex="1" parent="1">
          <mxGeometry x="1131" y="457" width="114" height="39" as="geometry" />
        </mxCell>
        <mxCell id="4f5iD5GosNyRMmwosMSg-62" style="edgeStyle=none;shape=connector;rounded=0;orthogonalLoop=1;jettySize=auto;html=1;exitX=1;exitY=0.5;exitDx=0;exitDy=0;entryX=0;entryY=0.5;entryDx=0;entryDy=0;entryPerimeter=0;strokeColor=default;align=center;verticalAlign=middle;fontFamily=Helvetica;fontSize=11;fontColor=default;labelBackgroundColor=default;endArrow=classic;" edge="1" parent="1" source="4f5iD5GosNyRMmwosMSg-58" target="4f5iD5GosNyRMmwosMSg-53">
          <mxGeometry relative="1" as="geometry">
            <mxPoint x="1297" y="299" as="targetPoint" />
          </mxGeometry>
        </mxCell>
        <mxCell id="4f5iD5GosNyRMmwosMSg-68" style="edgeStyle=none;shape=connector;rounded=0;orthogonalLoop=1;jettySize=auto;html=1;exitX=1;exitY=0.5;exitDx=0;exitDy=0;exitPerimeter=0;entryX=0;entryY=0.5;entryDx=0;entryDy=0;strokeColor=default;align=center;verticalAlign=middle;fontFamily=Helvetica;fontSize=11;fontColor=default;labelBackgroundColor=default;endArrow=classic;" edge="1" parent="1" source="4f5iD5GosNyRMmwosMSg-63" target="4f5iD5GosNyRMmwosMSg-67">
          <mxGeometry relative="1" as="geometry" />
        </mxCell>
        <mxCell id="4f5iD5GosNyRMmwosMSg-63" value="Document DB" style="shape=cylinder3;whiteSpace=wrap;html=1;boundedLbl=1;backgroundOutline=1;size=15;fontFamily=Helvetica;fontSize=11;fontColor=default;labelBackgroundColor=default;labelPosition=center;verticalLabelPosition=top;align=center;verticalAlign=bottom;" vertex="1" parent="1">
          <mxGeometry x="1152" y="166" width="60" height="80" as="geometry" />
        </mxCell>
        <mxCell id="4f5iD5GosNyRMmwosMSg-64" style="edgeStyle=none;shape=connector;rounded=0;orthogonalLoop=1;jettySize=auto;html=1;exitX=1;exitY=0.5;exitDx=0;exitDy=0;entryX=0;entryY=0.5;entryDx=0;entryDy=0;entryPerimeter=0;strokeColor=default;align=center;verticalAlign=middle;fontFamily=Helvetica;fontSize=11;fontColor=default;labelBackgroundColor=default;endArrow=classic;" edge="1" parent="1" source="4f5iD5GosNyRMmwosMSg-41" target="4f5iD5GosNyRMmwosMSg-63">
          <mxGeometry relative="1" as="geometry" />
        </mxCell>
        <mxCell id="4f5iD5GosNyRMmwosMSg-65" style="edgeStyle=none;shape=connector;rounded=0;orthogonalLoop=1;jettySize=auto;html=1;exitX=0;exitY=0;exitDx=0;exitDy=0;strokeColor=default;align=center;verticalAlign=middle;fontFamily=Helvetica;fontSize=11;fontColor=default;labelBackgroundColor=default;endArrow=classic;" edge="1" parent="1" source="4f5iD5GosNyRMmwosMSg-23" target="4f5iD5GosNyRMmwosMSg-23">
          <mxGeometry relative="1" as="geometry" />
        </mxCell>
        <mxCell id="4f5iD5GosNyRMmwosMSg-73" style="edgeStyle=none;shape=connector;rounded=0;orthogonalLoop=1;jettySize=auto;html=1;exitX=1;exitY=0.5;exitDx=0;exitDy=0;entryX=0;entryY=0.5;entryDx=0;entryDy=0;strokeColor=default;align=center;verticalAlign=middle;fontFamily=Helvetica;fontSize=11;fontColor=default;labelBackgroundColor=default;endArrow=classic;" edge="1" parent="1" source="4f5iD5GosNyRMmwosMSg-67" target="4f5iD5GosNyRMmwosMSg-72">
          <mxGeometry relative="1" as="geometry" />
        </mxCell>
        <mxCell id="4f5iD5GosNyRMmwosMSg-78" style="edgeStyle=none;shape=connector;rounded=1;orthogonalLoop=1;jettySize=auto;html=1;exitX=1;exitY=0.5;exitDx=0;exitDy=0;strokeColor=default;align=center;verticalAlign=middle;fontFamily=Helvetica;fontSize=11;fontColor=default;labelBackgroundColor=default;endArrow=classic;curved=0;" edge="1" parent="1" source="4f5iD5GosNyRMmwosMSg-67" target="4f5iD5GosNyRMmwosMSg-75">
          <mxGeometry relative="1" as="geometry">
            <Array as="points">
              <mxPoint x="1602" y="251" />
            </Array>
          </mxGeometry>
        </mxCell>
        <mxCell id="4f5iD5GosNyRMmwosMSg-67" value="Query Semantic Retrieval of similar text and images" style="rounded=0;whiteSpace=wrap;html=1;fontFamily=Helvetica;fontSize=11;fontColor=default;labelBackgroundColor=default;" vertex="1" parent="1">
          <mxGeometry x="1380" y="212" width="120" height="115" as="geometry" />
        </mxCell>
        <mxCell id="4f5iD5GosNyRMmwosMSg-77" style="edgeStyle=none;shape=connector;rounded=0;orthogonalLoop=1;jettySize=auto;html=1;exitX=1;exitY=0.5;exitDx=0;exitDy=0;strokeColor=default;align=center;verticalAlign=middle;fontFamily=Helvetica;fontSize=11;fontColor=default;labelBackgroundColor=default;endArrow=classic;" edge="1" parent="1" source="4f5iD5GosNyRMmwosMSg-72" target="4f5iD5GosNyRMmwosMSg-75">
          <mxGeometry relative="1" as="geometry" />
        </mxCell>
        <mxCell id="4f5iD5GosNyRMmwosMSg-72" value="Augment Answer with LLM" style="rounded=0;whiteSpace=wrap;html=1;fontFamily=Helvetica;fontSize=11;fontColor=default;labelBackgroundColor=default;" vertex="1" parent="1">
          <mxGeometry x="1538" y="278" width="120" height="61" as="geometry" />
        </mxCell>
        <mxCell id="4f5iD5GosNyRMmwosMSg-75" value="User" style="sketch=0;outlineConnect=0;fontColor=#232F3E;gradientColor=none;fillColor=#232F3D;strokeColor=none;dashed=0;verticalLabelPosition=bottom;verticalAlign=top;align=center;html=1;fontSize=12;fontStyle=0;aspect=fixed;pointerEvents=1;shape=mxgraph.aws4.user;fontFamily=Helvetica;labelBackgroundColor=default;" vertex="1" parent="1">
          <mxGeometry x="1691" y="230.5" width="78" height="78" as="geometry" />
        </mxCell>
      </root>
    </mxGraphModel>
  </diagram>
</mxfile>
